<svg xmlns="http://www.w3.org/2000/svg" version="1.1" xmlns:xlink="http://www.w3.org/1999/xlink" xmlns:svgjs="http://svgjs.com/svgjs" width="250" height="222.22"><svg xmlns="http://www.w3.org/2000/svg" viewBox="0 0 250 222.22"><g id="SvgjsG1001" data-name="Layer 2"><g id="SvgjsG1000" data-name="Layer 1"><path d="M43.71,83.33H0L94.92,194a1.3,1.3,0,0,0,2.17-1.43Zm162.58,0L152.91,192.58a1.3,1.3,0,0,0,2.17,1.39L250,83.33Zm-142,0,59.51,138.11a1.29,1.29,0,0,0,1.71.67,1.35,1.35,0,0,0,.68-.67L185.68,83.33Z"></path><path d="M39.28,0,0,69.44H43.88L73.91,0ZM210.72,0H176.09l30,69.44H250ZM94.84,0l-30,69.44H185.2L155.16,0Z"></path></g></g></svg><style>@media (prefers-color-scheme: light) { :root { filter: none; } }
@media (prefers-color-scheme: dark) { :root { filter: invert(100%); } }
</style></svg>