<svg xmlns="http://www.w3.org/2000/svg" viewBox="0 0 250 250"><defs><style>.cls-1{fill:#010101;}</style></defs><g id="Layer_2" data-name="Layer 2"><g id="Layer_1-2" data-name="Layer 1"><path class="cls-1" d="M160.83,67.08a15.63,15.63,0,1,0,22.1,0A15.63,15.63,0,0,0,160.83,67.08Zm31.25-31.25a15.63,15.63,0,1,0,22.1,0A15.63,15.63,0,0,0,192.08,35.83ZM218.75,0h-62.5A31.25,31.25,0,0,0,125,31.25v62.5a30.93,30.93,0,0,0,4.42,15.78L1.14,237.81a3.91,3.91,0,0,0,0,5.52l5.53,5.53a3.91,3.91,0,0,0,5.52,0L36,225.08l22.65,22.65a7.75,7.75,0,0,0,11,0l21.9-21.9a7.75,7.75,0,0,0,0-11L68.82,192.22l14-14,22.66,22.65a7.74,7.74,0,0,0,11,0L138.36,179a7.75,7.75,0,0,0,0-10.95L115.7,145.34l24.77-24.77A30.93,30.93,0,0,0,156.25,125h62.5A31.25,31.25,0,0,0,250,93.74V31.25A31.24,31.24,0,0,0,218.75,0ZM75.06,220.36l-11,10.95L46.92,214.13l11-10.95,17.18,17.18Zm46.87-46.88-11,11L93.8,167.25l11-10.95,17.18,17.18ZM234.38,93.75a15.65,15.65,0,0,1-15.63,15.63h-62.5a15.64,15.64,0,0,1-15.62-15.63V31.25a15.64,15.64,0,0,1,15.62-15.62h62.5a15.64,15.64,0,0,1,15.63,15.62Z"/></g></g></svg>