<svg xmlns="http://www.w3.org/2000/svg" viewBox="0 0 175.54 250"><g id="Layer_2" data-name="Layer 2"><g id="Layer_1-2" data-name="Layer 1"><path d="M149.41,60.2c-.19,11.83-3.08,22-8.89,31.35a2.21,2.21,0,0,0-.06,2.52q3.14,6.48,6,13.08a3.88,3.88,0,0,0,2.12,2.33Q160.32,114.66,172,120a8.34,8.34,0,0,1,2.46,1.62,3.28,3.28,0,0,1,0,4.87,11.93,11.93,0,0,1-2.56,1.83c-7.69,4.28-15.4,8.5-23.06,12.83a4.44,4.44,0,0,0-1.91,2.28,61.09,61.09,0,0,1-7,15.29,2.45,2.45,0,0,0-.12,2.86,57.44,57.44,0,0,1,7,30.64,39.13,39.13,0,0,1-3.68,15.11,9.85,9.85,0,0,1-1.24,1.9,3.05,3.05,0,0,1-3.64,1,3.52,3.52,0,0,1-2.52-3.28c-.33-11.75-7.35-19-16.53-24.92a5.22,5.22,0,0,0-5.71-.19c-2.86,1.43-6,2.25-9,3.48a4.28,4.28,0,0,0-2,1.84c-2.53,5.16-2.74,10.54-1.57,16.11a55.41,55.41,0,0,1,.53,21A29.63,29.63,0,0,1,94,238.83c-3.14,3.55-6.72,6.7-10.14,10a3.58,3.58,0,0,1-4.53.65c-1.66-.94-2.16-2.38-1.79-4.53,1.07-6.17,2.24-12.33,3.15-18.52.66-4.53-.57-8.85-2.19-13-1.36-3.5-2.91-6.93-4.11-10.47-1.69-5-1.15-10.21-.78-15.36.08-1.15-.08-1.65-1.29-2a64.19,64.19,0,0,1-16-6.62,3.63,3.63,0,0,0-2.73-.15c-5.58,2.07-9.78,6-13.33,10.59-3.38,4.4-5.86,9.17-5.56,15a4,4,0,0,1-2.92,3.77,3.59,3.59,0,0,1-4.21-2.44,57,57,0,0,1-3.35-10.68c-2.33-14,.94-27,8.28-39a2.53,2.53,0,0,0,.11-2.72c-1.35-3-2.65-6.13-3.73-9.29a4.08,4.08,0,0,0-2.44-2.69q-11.52-5.07-23-10.26A8.21,8.21,0,0,1,.8,129.17a3.16,3.16,0,0,1,.12-4.33,11.79,11.79,0,0,1,2.65-2c7.73-4.32,15.5-8.56,23.21-12.93a5.77,5.77,0,0,0,2.14-2.53c1.83-3.92,3.43-8,5.28-11.86a2.81,2.81,0,0,0-.08-3A58,58,0,0,1,26,62.65a40.84,40.84,0,0,1,3.7-17.58,9.65,9.65,0,0,1,1.18-2,3.11,3.11,0,0,1,3.75-1.18c1.47.58,2.7,1.66,2.63,3.4-.31,8.48,4.33,14.48,9.9,20a22.91,22.91,0,0,0,9.76,6.07,4,4,0,0,0,2.31-.15c4.1-1.56,8.19-3.16,12.23-4.86a4.26,4.26,0,0,0,2-1.75c3.59-6.4,3.49-13.15,2-20.12a49.54,49.54,0,0,1-.14-19.07,29.15,29.15,0,0,1,7.16-14.12C85.66,7.71,89.31,4.46,92.82,1.1A3.52,3.52,0,0,1,97.21.52C98.87,1.44,99.4,2.93,99,5,98,11.2,96.82,17.36,95.88,23.55c-.62,4.16.39,8.18,1.84,12.05s3,7.37,4.37,11.13c1.79,5.11,1.22,10.42.91,15.69,0,.06,0,.12,0,.18-.53,3.3-.51,3.26,2.67,4.29a47.8,47.8,0,0,1,6.09,2.27,8.28,8.28,0,0,0,6.14.35c9.22-2.57,19.1-14,20.33-23.53a14.87,14.87,0,0,0,.05-2.11c0-2.13,1.07-3.79,2.73-4.2a3.78,3.78,0,0,1,4.38,2.46,61.29,61.29,0,0,1,2.5,6.75,29,29,0,0,1,1.05,5C149.19,56.24,149.29,58.64,149.41,60.2ZM33.63,122.08a12.53,12.53,0,0,0,1.5.18q18.48,0,37,0a2,2,0,0,0,2.17-1.54,14.32,14.32,0,0,1,8.18-8.26A2.22,2.22,0,0,0,84.09,110c0-12.14,0-24.29,0-36.44,0-.62-.09-1.23-.13-1.85C56.1,73.34,34.76,96.52,33.63,122.08Zm58-50.21a11.93,11.93,0,0,0-.14,1.34q0,18.58,0,37.16a1.89,1.89,0,0,0,1.46,2,14.18,14.18,0,0,1,8.17,8A2.59,2.59,0,0,0,104,122.3c12,0,24,0,35.92,0,.68,0,1.35-.13,2-.19C140.4,93.25,115.7,72.53,91.64,71.87Zm-58,57.84C34.74,156.58,58,179.15,83.92,180c0-.38.13-.78.14-1.17q0-18.75,0-37.5c0-1.12-.53-1.48-1.44-1.84a14.45,14.45,0,0,1-8.28-8.17,2.31,2.31,0,0,0-2.59-1.68c-12.08,0-24.16,0-36.25,0C34.91,129.62,34.28,129.68,33.66,129.71Zm108.29.06c-.58-.06-1-.15-1.48-.15q-18.58,0-37.16,0a1.87,1.87,0,0,0-2,1.43,14.46,14.46,0,0,1-8.17,8.29,2.21,2.21,0,0,0-1.65,2.43c.05,12.15,0,24.3,0,36.46,0,.61.08,1.23.12,1.85C117.89,178.62,140.27,157.14,142,129.77Zm-52-115.72-.47-.14c-3.26,3.78-6.08,7.82-7,12.88A49.31,49.31,0,0,0,83,46c1.16,5.82,1.15,11.52-1.08,17.11a9.39,9.39,0,0,0-.27,1.52c4.39,0,8.6,0,12.81,0,.4,0,1.13-.57,1.14-.9.11-4.26.65-8.61,0-12.77C95,47.17,93.1,43.61,91.67,40c-2.4-6-3.84-12.18-2.76-18.72C89.3,18.9,89.59,16.47,89.93,14.05ZM81,187.44a32,32,0,0,0-.08,11.16,48.26,48.26,0,0,0,3.42,9.75c3.53,7.91,4.73,16,2.79,24.52-.23,1-.28,2.07-.41,3.11l.46.12c3.26-3.77,6.08-7.82,7-12.87,1.25-6.43.65-12.83-.49-19.22-.69-3.8-1.34-7.63-.51-11.51.36-1.68.78-3.34,1.19-5.06ZM142,58c-2.77,3.28-5.27,6.77-8.32,9.7S127,73,123.79,75.52c3.67,3.4,7.58,7,11.48,10.65C139.63,80.23,143.09,65.68,142,58ZM31.06,189.61c2.47-3,4.77-6.15,7.53-8.89s6-5.14,9.09-7.67L37.46,162C33.29,167,29.09,185.41,31.06,189.61ZM39.42,87.28,49.66,76.17c-6.23-3.59-11.56-9.32-16.09-15.94A49.06,49.06,0,0,0,39.42,87.28ZM124,176.06c2.79,2.46,5.76,4.76,8.35,7.44s4.72,5.67,7.27,8.78a52.46,52.46,0,0,0-5.27-25.63Zm25.22-43.42,15-8.31-15-6.69ZM11.32,126.75l15,6.65V118.46Z"/><path d="M56.08,93.92c.86.21,1.26.3,1.65.41,2.87.8,5.73,1.65,8.62,2.38A2.85,2.85,0,0,1,68.68,99c.77,3.06,1.68,6.09,2.48,9.14.41,1.54,0,2-1.57,1.54-3.1-.84-6.23-1.62-9.28-2.63a3.47,3.47,0,0,1-1.94-1.91c-1-3.11-1.83-6.29-2.63-9.47C55.61,95.14,56,94.5,56.08,93.92Z"/><path d="M104.71,110c-.15-.49-.54-1.06-.43-1.5.87-3.4,1.79-6.79,2.83-10.14a2.67,2.67,0,0,1,1.58-1.43c3.19-1,6.41-1.82,9.63-2.67,1.46-.39,1.87,0,1.49,1.44-.85,3.22-1.7,6.45-2.67,9.64a2.63,2.63,0,0,1-1.42,1.58c-3.35,1-6.74,1.94-10.12,2.89Z"/><path d="M56.21,155.92c-.16-.42-.62-1-.51-1.44.84-3.35,1.74-6.68,2.75-10A2.69,2.69,0,0,1,60,143c3.24-1,6.52-1.87,9.8-2.76,1.26-.35,1.82.08,1.44,1.44-.91,3.27-1.76,6.56-2.74,9.81a2.43,2.43,0,0,1-1.33,1.44c-3.3,1-6.64,1.9-10,2.82C57,155.81,56.85,155.82,56.21,155.92Z"/><path d="M118.59,155.88c-3.43-1-6.93-1.9-10.38-3a2.42,2.42,0,0,1-1.22-1.53c-.95-3.19-1.81-6.41-2.66-9.62-.36-1.39.11-1.83,1.54-1.45,3.15.85,6.32,1.67,9.43,2.68a3.24,3.24,0,0,1,1.84,1.81c1,3.11,1.76,6.29,2.66,9.43C120.12,155.32,119.91,155.91,118.59,155.88Z"/></g></g></svg>