<svg xmlns="http://www.w3.org/2000/svg" viewBox="0 0 226.63 250"><g id="Layer_2" data-name="Layer 2"><g id="Layer_1-2" data-name="Layer 1"><path d="M49.35,89.38H19.1a3.8,3.8,0,0,0,.45-.91,9.43,9.43,0,0,0,0-1.45L.07,72.55C.38,70.08,7.44,57.7,11.14,53.18L34,63a87.5,87.5,0,0,1,8-9,94.62,94.62,0,0,1,9.24-8.25L41.42,22.8A121.89,121.89,0,0,1,60.63,11.57L75.26,31.24a4.27,4.27,0,0,0,2.39-.4,56.14,56.14,0,0,1,7.75-2.53c1.31-.27,2.58-.87,3.92-1.1,2.12-.36,4.14-1.16,6.3-1.31a27.59,27.59,0,0,0,3.31-.62,8.68,8.68,0,0,0,.71-4.13c0-1,.35-2,.45-3s-.14-2,.46-3c.25-.42.07-1.12,0-1.69-.1-1.91.85-3.72.49-5.65.85-1.14.32-2.47.5-3.7s.42-2.28.66-3.51c6.11-1.11,12.4-.41,18.65-.55a19,19,0,0,1,3.53.61c.31,1,0,2.17.51,3.32s-.13,2.41.46,3.71c.46,1-.22,2.52.18,3.59s.14,2.37.45,3.48a15.59,15.59,0,0,1,.47,3.47c.05,1.23.46,2.47.41,3.7a15.82,15.82,0,0,0,.7,3.39c2.68.29,5.28,1,7.91,1.47s5.31,1.39,8,2.07,5,1.71,7.62,2.64l14.64-19.72c2.41.24,14.08,6.86,19.4,11l-9.78,22.88A107.23,107.23,0,0,1,192.58,63l22.71-9.72c2.5,2.37,10.55,16.15,11.25,19.28L207.05,87c0,.83-.31,1.57.4,2.12-.22.35-21.65.5-30,.21a20.36,20.36,0,0,1-2-3.06,34.84,34.84,0,0,0-4.76-7,75.07,75.07,0,0,0-7.9-8.45,90.81,90.81,0,0,0-9-7.08,37.79,37.79,0,0,0-5.3-3.09c-1.82-.9-3.66-1.77-5.51-2.59-2-.88-4.06-1.61-6.07-2.43a35.58,35.58,0,0,0-4.33-1.34c-1-.26-2.17-.11-2.88-.66-.93-.71-1.95,0-2.93-.69s-2.31.09-3.38-.62c-3,0-6-.8-9.07-.5-1.29.12-2.61,0-3.91,0a47.87,47.87,0,0,0-7.1.53A89.22,89.22,0,0,0,91.65,55c-2.21.76-4.44,1.46-6.6,2.34a56.08,56.08,0,0,0-6.34,2.94,75.65,75.65,0,0,0-8.13,5.14c-1.77,1.3-3.47,2.68-5.16,4.09a48.9,48.9,0,0,0-5.59,5.26A73.84,73.84,0,0,0,53.22,83,60.42,60.42,0,0,0,49.35,89.38Z"/><path d="M192.59,187.07a109.37,109.37,0,0,1-17.25,17.23l9.81,22.93a126.08,126.08,0,0,1-19.23,11.23l-14.53-19.58a3.24,3.24,0,0,0-2.38.29,49,49,0,0,1-7.75,2.5c-1.11.2-2.18.64-3.27,1a5.93,5.93,0,0,1-2.48.52,6.32,6.32,0,0,0-2.22.53,45.56,45.56,0,0,1-5.68,1,15.37,15.37,0,0,0-.64,2.17c-.11.8.2,1.71-.07,2.42a13,13,0,0,0-.46,4,30.06,30.06,0,0,1-.47,3c-.16.92.13,1.81-.35,2.79s.16,2.17-.2,3.08c-.54,1.34-.29,2.66-.44,4-.13,1.08-.4,2.13-.63,3.3-1,.19-2.23.51-3.45.62s-2.44,0-3.66,0c-2.93,0-5.86-.1-8.78,0a39.47,39.47,0,0,1-6.29-.64c-.07-1.73-.77-3.5-.64-5.42a12.8,12.8,0,0,0-.45-3c-.18-1,.47-2.11-.48-3,0,0,0-.16,0-.24.36-2-.46-3.92-.54-5.9-.09-2.39-.57-4.76-.88-7.12a101.69,101.69,0,0,1-23.55-6.3c-5.17,6.62-10,13.26-14.93,20a123,123,0,0,1-19.23-11.19c.87-2.15,1.71-4.31,2.61-6.44a44.42,44.42,0,0,0,2-4.53c.47-1.61,1.32-3,1.91-4.59s1.24-3.06,1.93-4.56c.44-1,.9-1.9,1.34-2.83A106.06,106.06,0,0,1,34,187.06l-22.89,9.8C6.75,191,3.43,184.72.06,178.42c-.13-.25,0-.64,0-.93l19.64-14.58-.41-2.18H49.21c.6.91,1.34,1.89,1.94,3A61,61,0,0,0,58,173.08a53.16,53.16,0,0,0,5.09,5.4,87.69,87.69,0,0,0,8.22,6.61,83.79,83.79,0,0,0,11.22,6.52c1.76.83,3.6,1.5,5.42,2.21s3.46,1.1,5.19,1.63,3.38.88,5.07,1.29a26.3,26.3,0,0,1,4,.92,1.38,1.38,0,0,0,.7.06c1.93-.32,3.75.55,5.65.51a55.24,55.24,0,0,1,5.61,0,45.44,45.44,0,0,0,9.55-.63,58.35,58.35,0,0,0,7.8-1.67c1.52-.42,3-1,4.65-1.24a24.91,24.91,0,0,0,4.23-1.51,59.74,59.74,0,0,0,6.54-3.06,71.42,71.42,0,0,0,8.95-5.51c1.84-1.33,3.58-2.8,5.33-4.25a46.13,46.13,0,0,0,5.24-4.92,84.09,84.09,0,0,0,6.9-8.58c1.38-2,2.56-4.19,4-6.19h30l-.49,2.11c6.46,5,13,9.81,19.78,14.69-.18.45-.33.93-.54,1.39a106.22,106.22,0,0,1-9.48,16.32c-.36.5-.64,1.05-1.05,1.71-2.39-1-4.72-2.08-7.06-3.08a36.73,36.73,0,0,0-4.35-1.84c-1.48-.41-2.63-1.44-4.22-1.68-1.43-.21-2.72-1.22-4.09-1.85C194.75,188,193.65,187.52,192.59,187.07Z"/><path d="M67.48,93.82H81.09V122a89.73,89.73,0,0,1,5.33-8.47c2.81-4.48,5.66-8.92,8.8-13.18.78-2.48,2.87-4.13,3.81-6.5H115.2c-1.65,2.22-3.33,4.32-4.82,6.54s-3,4.29-4.54,6.41c-1.41,1.94-2.92,3.81-4.25,5.8-1.46,2.18-3,4.28-4.54,6.41l-2.43,3.42c2.06,2.8,4.12,5.5,6.06,8.29,1.23,1.77,2.59,3.47,3.76,5.27,1.44,2.2,3.15,4.18,4.56,6.39s2.84,4,4.28,6c1.26,1.74,2.54,3.47,3.85,5.27h-16.9c-2.1-3.11-4.3-6.34-6.47-9.59-2.81-4.2-5.63-8.39-8.38-12.63-1.45-2.22-2.77-4.51-4.21-6.88.17,0,.1,0,.06,0s-.15.11-.15.17c0,9.6,0,19.19,0,28.9H67.48Z"/><path d="M50.25,95.41v12.16a4.87,4.87,0,0,1-1.06-.55c-1.21-1.16-2.86-1.36-4.31-2a24.72,24.72,0,0,0-12.3-1.43c-3,.28-5.7,1.47-7.14,4.79-.41,3.29,1.56,5.39,4.49,6.84,4.32,2.14,8.68,4.19,13,6.37a17,17,0,0,1,8.5,8.64,12.75,12.75,0,0,1,.84,2.08,25.08,25.08,0,0,1,.5,3.46,17.34,17.34,0,0,1-1,7.63,12.63,12.63,0,0,1-5,6.49c-1,.6-1.91,1.3-2.86,1.94-1.75,1.18-3.81,1.44-5.78,2a9.66,9.66,0,0,1-3.22.52c-1.16-.09-2.22.65-3.45.49a27.86,27.86,0,0,0-3.42,0,20.41,20.41,0,0,1-3.41,0,64.18,64.18,0,0,1-9.92-1.94,21,21,0,0,1-2.84-1.43V138.74c.24,0,.47-.12.54-.05,2.65,2.45,6,3.53,9.28,4.72a14,14,0,0,0,3.88.61c1.63.1,3.26,0,4.88,0a8.93,8.93,0,0,0,8.25-4.84l-.47-3.33A13.88,13.88,0,0,0,32.49,131a52.16,52.16,0,0,0-5.76-2.55,33.62,33.62,0,0,1-8.62-4.56,15.75,15.75,0,0,1-5.46-6.52,13.76,13.76,0,0,1-1.38-5.53,29.57,29.57,0,0,1,0-3.65c.15-1.11.72-2.16.91-3.27a9.53,9.53,0,0,1,2.22-4.19A15.64,15.64,0,0,1,21,95.5a43.31,43.31,0,0,1,8.83-2.32,69,69,0,0,1,8.84-.35,23.36,23.36,0,0,1,3.7.45l3.7.49c1.21.18,2.23,1,3.5,1C49.83,94.79,50.05,95.21,50.25,95.41Z"/><path d="M163.56,95.44c0,3.83,0,7.72,0,11.61,0,.13-.15.26-.31.51-2.2-1.7-4.83-2.41-7.42-3.22a14,14,0,0,0-3.33-.77,46.61,46.61,0,0,0-6.58,0,8.87,8.87,0,0,0-4.49,1.46c-1.73,1.29-3.31,2.86-2.59,5.73a15.77,15.77,0,0,0,1.3,2.23,8.93,8.93,0,0,0,3.19,2.28c3.93,1.91,7.78,4,11.76,5.79a25.15,25.15,0,0,1,6.27,4.33c2.72,2.41,3.64,5.61,4.66,8.84-.26,2,.3,4.08-.39,6.17a36.5,36.5,0,0,1-1,3.77,15.43,15.43,0,0,1-5.68,6.63,21.21,21.21,0,0,1-7.78,3c-1.07.22-2.13.36-3.21.51a19,19,0,0,1-3.47.45c-1.13-.07-2.27,0-3.41,0a17.62,17.62,0,0,1-3.41,0c-3.15-.64-6.42-.74-9.45-1.93-1.12-.44-2.2-1-3.19-1.41V138.59c.38.14.71.15.89.33,1.83,1.85,4.28,2.6,6.55,3.64,4.09,1.87,8.49,1.69,12.8,1.4a8.4,8.4,0,0,0,6-3.59c.93-1.26.57-4.21-.56-5.44a20.09,20.09,0,0,0-7.06-4.75c-2.41-1.05-4.85-2.05-7.23-3.18a25.4,25.4,0,0,1-8.45-6.07,15.44,15.44,0,0,1-3.1-6.28,16.75,16.75,0,0,1-.35-6.63,14.13,14.13,0,0,1,3-7.26,16.44,16.44,0,0,1,6.79-5.34,42,42,0,0,1,8.86-2.26,50.76,50.76,0,0,1,7.87-.32,41.52,41.52,0,0,1,11.63,1.92C163,94.85,163.23,95.16,163.56,95.44Z"/><path d="M180.72,93.82h34v10.65H194.36v13.61H213a2.79,2.79,0,0,1,.28.26.37.37,0,0,1,.09.2v10.3H194.42V143h21.75v10.74H180.72Z"/><path d="M172.16,89.34h-11.7c-2.05-2.17-4.16-4.35-6.21-6.59a50.62,50.62,0,0,0-10.11-8,53.15,53.15,0,0,0-12.93-5.87,55,55,0,0,0-8.92-2.06c-1.66-.25-3.38,0-4.91-.47a19.91,19.91,0,0,0-5.19-.4,54.44,54.44,0,0,0-6.62.59A32,32,0,0,0,98.14,68c-2.2.75-4.43,1.41-6.59,2.31-1.67.7-3.33,1.4-5,2.13a55.61,55.61,0,0,0-7.39,4.5c-4.18,2.74-7.5,6.47-11,10a18.14,18.14,0,0,0-1.78,2.42H54.65c1-1.55,1.83-3,2.83-4.4A75.26,75.26,0,0,1,68.55,73a54.38,54.38,0,0,1,9.18-6.59c2.7-1.55,5.43-3,8.24-4.28a52.2,52.2,0,0,1,10.26-3.51c2.48-.56,4.91-1.18,7.44-1.51a40.85,40.85,0,0,0,4.91-.47,28.54,28.54,0,0,1,5.19-.42c2.56-.21,5,.87,7.6.5,1.74.73,3.66.46,5.45,1s3.51,1,5.27,1.39,3.36,1.48,5.22,1.55c3.77,1.9,7.69,3.45,11.31,5.7,2.76,1.72,5.37,3.58,7.95,5.55a71.47,71.47,0,0,1,8.85,8.54C167.86,83,169.79,86.15,172.16,89.34Z"/><path d="M160.17,160.68H172c-1.08,1.63-2,3.14-3,4.61a71.46,71.46,0,0,1-9.31,10.28,58.5,58.5,0,0,1-10.79,8.07,81.45,81.45,0,0,1-8.24,4.28,53.71,53.71,0,0,1-10.25,3.52c-2.48.56-4.92,1.13-7.44,1.51-1.66.25-3.37,0-4.92.46-2.31.62-4.59.34-6.89.39a21.48,21.48,0,0,1-3.45-.46c-1.15-.18-2.28.15-3.5-.4-1-.47-2.43-.29-3.67-.5a70.09,70.09,0,0,1-10.1-2.75,67.15,67.15,0,0,1-11.26-5.19,61.36,61.36,0,0,1-8.94-6.14c-2.53-2-4.68-4.4-7-6.62a59.38,59.38,0,0,1-8.49-11h11.5c2.06,2.18,4.23,4.42,6.34,6.71a50.66,50.66,0,0,0,10,7.8,53.53,53.53,0,0,0,12.93,5.87,58.88,58.88,0,0,0,8.92,2.06c1.67.27,3.39,0,4.92.46a16.14,16.14,0,0,0,5.43.38c2.12-.06,4.27-.29,6.37-.55a49.42,49.42,0,0,0,7.2-1.38c2.17-.63,4.33-1.32,6.44-2.12,1.83-.69,3.59-1.56,5.35-2.4a61.32,61.32,0,0,0,7.58-4.65c4-2.68,7.25-6.26,10.62-9.67A22.78,22.78,0,0,0,160.17,160.68Z"/></g></g></svg>